<?xml version="1.0" encoding="UTF-8" standalone="no"?><svg xmlns="http://www.w3.org/2000/svg" xmlns:xlink="http://www.w3.org/1999/xlink" clip-rule="evenodd" stroke-miterlimit="10" viewBox="0 0 628 72"><desc>SVG generated by Keynote</desc><defs></defs><g transform="matrix(1.00, 0.00, -0.00, -1.00, 0.0, 72.0)"><text xml:space="preserve" font-family="OpenSans,Open Sans" font-size="52.0" fill="#3E3E3E" transform="matrix(1.00, 0.00, -0.00, -1.00, 0.5, 15.5)">h</text><text xml:space="preserve" font-family="OpenSans,Open Sans" font-size="52.0" fill="#3E3E3E" transform="matrix(1.00, 0.00, -0.00, -1.00, 32.4, 15.5)">t</text><text xml:space="preserve" font-family="OpenSans,Open Sans" font-size="52.0" fill="#3E3E3E" transform="matrix(1.00, 0.00, -0.00, -1.00, 50.8, 15.5)">t</text><text xml:space="preserve" font-family="OpenSans,Open Sans" font-size="52.0" fill="#3E3E3E" transform="matrix(1.00, 0.00, -0.00, -1.00, 69.1, 15.5)">p</text><text xml:space="preserve" font-family="OpenSans,Open Sans" font-size="52.0" fill="#3E3E3E" transform="matrix(1.00, 0.00, -0.00, -1.00, 101.0, 15.5)">:</text><text xml:space="preserve" font-family="OpenSans,Open Sans" font-size="52.0" fill="#3E3E3E" transform="matrix(1.00, 0.00, -0.00, -1.00, 114.8, 15.5)">/</text><text xml:space="preserve" font-family="OpenSans,Open Sans" font-size="52.0" fill="#3E3E3E" transform="matrix(1.00, 0.00, -0.00, -1.00, 133.9, 15.5)">/</text><text xml:space="preserve" font-family="OpenSans,Open Sans" font-size="52.0" fill="#3E3E3E" transform="matrix(1.00, 0.00, -0.00, -1.00, 153.0, 15.5)">c</text><text xml:space="preserve" font-family="OpenSans,Open Sans" font-size="52.0" fill="#3E3E3E" transform="matrix(1.00, 0.00, -0.00, -1.00, 177.8, 15.5)">k</text><text xml:space="preserve" font-family="OpenSans,Open Sans" font-size="52.0" fill="#3E3E3E" transform="matrix(1.00, 0.00, -0.00, -1.00, 204.0, 15.5)">e</text><text xml:space="preserve" font-family="OpenSans,Open Sans" font-size="52.0" fill="#3E3E3E" transform="matrix(1.00, 0.00, -0.00, -1.00, 233.2, 15.5)">d</text><text xml:space="preserve" font-family="OpenSans,Open Sans" font-size="52.0" fill="#3E3E3E" transform="matrix(1.00, 0.00, -0.00, -1.00, 265.1, 15.5)">i</text><text xml:space="preserve" font-family="OpenSans,Open Sans" font-size="52.0" fill="#3E3E3E" transform="matrix(1.00, 0.00, -0.00, -1.00, 278.2, 15.5)">t</text><text xml:space="preserve" font-family="OpenSans,Open Sans" font-size="52.0" fill="#3E3E3E" transform="matrix(1.00, 0.00, -0.00, -1.00, 296.6, 15.5)">o</text><text xml:space="preserve" font-family="OpenSans,Open Sans" font-size="52.0" fill="#3E3E3E" transform="matrix(1.00, 0.00, -0.00, -1.00, 328.0, 15.5)">r</text><text xml:space="preserve" font-family="OpenSans,Open Sans" font-size="52.0" fill="#3E3E3E" transform="matrix(1.00, 0.00, -0.00, -1.00, 349.2, 15.5)">.</text><text xml:space="preserve" font-family="OpenSans,Open Sans" font-size="52.0" fill="#3E3E3E" transform="matrix(1.00, 0.00, -0.00, -1.00, 363.1, 15.5)">c</text><text xml:space="preserve" font-family="OpenSans,Open Sans" font-size="52.0" fill="#3E3E3E" transform="matrix(1.00, 0.00, -0.00, -1.00, 387.8, 15.5)">o</text><text xml:space="preserve" font-family="OpenSans,Open Sans" font-size="52.0" fill="#3E3E3E" transform="matrix(1.00, 0.00, -0.00, -1.00, 419.2, 15.5)">m</text><text xml:space="preserve" font-family="OpenSans,Open Sans" font-size="52.0" fill="#3E3E3E" transform="matrix(1.00, 0.00, -0.00, -1.00, 467.6, 15.5)">/</text><text xml:space="preserve" font-family="OpenSans,Open Sans" font-size="52.0" fill="#3E3E3E" transform="matrix(1.00, 0.00, -0.00, -1.00, 486.7, 15.5)">d</text><text xml:space="preserve" font-family="OpenSans,Open Sans" font-size="52.0" fill="#3E3E3E" transform="matrix(1.00, 0.00, -0.00, -1.00, 518.6, 15.5)">e</text><text xml:space="preserve" font-family="OpenSans,Open Sans" font-size="52.0" fill="#3E3E3E" transform="matrix(1.00, 0.00, -0.00, -1.00, 547.7, 15.5)">m</text><text xml:space="preserve" font-family="OpenSans,Open Sans" font-size="52.0" fill="#3E3E3E" transform="matrix(1.00, 0.00, -0.00, -1.00, 596.1, 15.5)">o</text><g><clipPath id="clip0x7f8a3f0c1a00"><path d="M -0.5 9.3 L 627.5 9.3 L 627.5 13.8 L -0.5 13.8 Z M -0.5 9.3 "></path></clipPath><g clip-path="url(#clip0x7f8a3f0c1a00)"><path d="M 594.0 83.7 L 1221.0 83.7 " fill="none" stroke="#3E3E3E" stroke-width="2.59" transform="matrix(1.00, 0.00, 0.00, -1.00, -593.5, 95.2)"></path></g></g></g></svg>