<?xml version="1.0" encoding="UTF-8" standalone="no"?><svg xmlns="http://www.w3.org/2000/svg" xmlns:xlink="http://www.w3.org/1999/xlink" clip-rule="evenodd" stroke-miterlimit="10" viewBox="0 0 1920 1080"><desc>SVG generated by Keynote</desc><defs></defs><g transform="matrix(1.00, 0.00, -0.00, -1.00, 0.0, 1080.0)"><g><clipPath id="clip0x7f8a4406f680"><path d="M 0.0 1080.0 L 1920.0 1080.0 L 1920.0 0.0 L 0.0 0.0 Z M 0.0 1080.0 "></path></clipPath><g clip-path="url(#clip0x7f8a4406f680)"><image xlink:href="../../991DDBCA-1BA3-4EEA-9F7C-53BF884786EC/assets/C8AF8D5373B240750928713C158CDCE7.png" width="1280.00" height="1024.00" transform="matrix(1.50, 0.00, -0.00, -1.05, 0.0, 1080.0)"></image></g></g><image xlink:href="../../991DDBCA-1BA3-4EEA-9F7C-53BF884786EC/assets/8A87A3B5F2651CC804842E862E028977.png" width="153.00" height="41.00" transform="matrix(0.95, 0.00, -0.00, -0.95, 1725.0, 1080.0)"></image><text xml:space="preserve" font-family="OpenSans-Light,Open Sans" font-size="88.0" fill="#3E3E3E" transform="matrix(1.00, 0.00, -0.00, -1.00, 802.9, 504.3)">M</text><text xml:space="preserve" font-family="OpenSans-Light,Open Sans" font-size="88.0" fill="#3E3E3E" transform="matrix(1.00, 0.00, -0.00, -1.00, 878.8, 504.3)">O</text><text xml:space="preserve" font-family="OpenSans-Light,Open Sans" font-size="88.0" fill="#3E3E3E" transform="matrix(1.00, 0.00, -0.00, -1.00, 946.1, 504.3)">B</text><text xml:space="preserve" font-family="OpenSans-Light,Open Sans" font-size="88.0" fill="#3E3E3E" transform="matrix(1.00, 0.00, -0.00, -1.00, 1001.2, 504.3)">I</text><text xml:space="preserve" font-family="OpenSans-Light,Open Sans" font-size="88.0" fill="#3E3E3E" transform="matrix(1.00, 0.00, -0.00, -1.00, 1023.4, 504.3)">L</text><text xml:space="preserve" font-family="OpenSans-Light,Open Sans" font-size="88.0" fill="#3E3E3E" transform="matrix(1.00, 0.00, -0.00, -1.00, 1068.6, 504.3)">E</text><image xlink:href="A4EC06067B15D649BE4F0F0A9FD084AC.png" width="640.00" height="1136.00" transform="matrix(0.79, 0.00, -0.00, -0.79, 220.0, 991.0)"></image><image xlink:href="6F4BB86841CC7CD6D4A1468811125179.png" width="480.00" height="854.00" transform="matrix(1.06, 0.00, -0.00, -1.06, 1192.0, 991.0)"></image></g></svg>