<?xml version="1.0" encoding="UTF-8" standalone="no"?><svg xmlns="http://www.w3.org/2000/svg" xmlns:xlink="http://www.w3.org/1999/xlink" clip-rule="evenodd" stroke-miterlimit="10" viewBox="0 0 1920 1080"><desc>SVG generated by Keynote</desc><defs></defs><g transform="matrix(1.00, 0.00, -0.00, -1.00, 0.0, 1080.0)"><g><clipPath id="clip0x7f8a2c9323a0"><path d="M 0.0 1080.0 L 1920.0 1080.0 L 1920.0 0.0 L 0.0 0.0 Z M 0.0 1080.0 "></path></clipPath><g clip-path="url(#clip0x7f8a2c9323a0)"><image xlink:href="../../991DDBCA-1BA3-4EEA-9F7C-53BF884786EC/assets/C8AF8D5373B240750928713C158CDCE7.png" width="1280.00" height="1024.00" transform="matrix(1.50, 0.00, -0.00, -1.05, 0.0, 1080.0)"></image></g></g><image xlink:href="../../991DDBCA-1BA3-4EEA-9F7C-53BF884786EC/assets/8A87A3B5F2651CC804842E862E028977.png" width="153.00" height="41.00" transform="matrix(0.95, 0.00, -0.00, -0.95, 1725.0, 1080.0)"></image><text xml:space="preserve" font-family="OpenSans-Light,Open Sans" font-size="88.0" fill="#3E3E3E" transform="matrix(1.00, 0.00, -0.00, -1.00, 57.0, 949.8)">O</text><text xml:space="preserve" font-family="OpenSans-Light,Open Sans" font-size="88.0" fill="#3E3E3E" transform="matrix(1.00, 0.00, -0.00, -1.00, 124.3, 949.8)">N</text><text xml:space="preserve" font-family="OpenSans-Light,Open Sans" font-size="88.0" fill="#3E3E3E" transform="matrix(1.00, 0.00, -0.00, -1.00, 187.7, 949.8)">L</text><text xml:space="preserve" font-family="OpenSans-Light,Open Sans" font-size="88.0" fill="#3E3E3E" transform="matrix(1.00, 0.00, -0.00, -1.00, 232.9, 949.8)">I</text><text xml:space="preserve" font-family="OpenSans-Light,Open Sans" font-size="88.0" fill="#3E3E3E" transform="matrix(1.00, 0.00, -0.00, -1.00, 255.1, 949.8)">N</text><text xml:space="preserve" font-family="OpenSans-Light,Open Sans" font-size="88.0" fill="#3E3E3E" transform="matrix(1.00, 0.00, -0.00, -1.00, 318.6, 949.8)">E</text><text xml:space="preserve" font-family="OpenSans-Light,Open Sans" font-size="88.0" fill="#3E3E3E" transform="matrix(1.00, 0.00, -0.00, -1.00, 367.1, 949.8)"> </text><text xml:space="preserve" font-family="OpenSans-Light,Open Sans" font-size="88.0" fill="#3E3E3E" transform="matrix(1.00, 0.00, -0.00, -1.00, 390.0, 949.8)">T</text><text xml:space="preserve" font-family="OpenSans-Light,Open Sans" font-size="88.0" fill="#3E3E3E" transform="matrix(1.00, 0.00, -0.00, -1.00, 436.1, 949.8)">E</text><text xml:space="preserve" font-family="OpenSans-Light,Open Sans" font-size="88.0" fill="#3E3E3E" transform="matrix(1.00, 0.00, -0.00, -1.00, 484.6, 949.8)">X</text><text xml:space="preserve" font-family="OpenSans-Light,Open Sans" font-size="88.0" fill="#3E3E3E" transform="matrix(1.00, 0.00, -0.00, -1.00, 532.0, 949.8)">T</text><text xml:space="preserve" font-family="OpenSans-Light,Open Sans" font-size="88.0" fill="#3E3E3E" transform="matrix(1.00, 0.00, -0.00, -1.00, 578.0, 949.8)"> </text><text xml:space="preserve" font-family="OpenSans-Light,Open Sans" font-size="88.0" fill="#3E3E3E" transform="matrix(1.00, 0.00, -0.00, -1.00, 600.9, 949.8)">E</text><text xml:space="preserve" font-family="OpenSans-Light,Open Sans" font-size="88.0" fill="#3E3E3E" transform="matrix(1.00, 0.00, -0.00, -1.00, 649.4, 949.8)">D</text><text xml:space="preserve" font-family="OpenSans-Light,Open Sans" font-size="88.0" fill="#3E3E3E" transform="matrix(1.00, 0.00, -0.00, -1.00, 711.6, 949.8)">I</text><text xml:space="preserve" font-family="OpenSans-Light,Open Sans" font-size="88.0" fill="#3E3E3E" transform="matrix(1.00, 0.00, -0.00, -1.00, 733.7, 949.8)">T</text><text xml:space="preserve" font-family="OpenSans-Light,Open Sans" font-size="88.0" fill="#3E3E3E" transform="matrix(1.00, 0.00, -0.00, -1.00, 778.1, 949.8)">O</text><text xml:space="preserve" font-family="OpenSans-Light,Open Sans" font-size="88.0" fill="#3E3E3E" transform="matrix(1.00, 0.00, -0.00, -1.00, 845.3, 949.8)">R</text><text xml:space="preserve" font-family="OpenSans,Open Sans" font-size="52.0" fill="#3E3E3E" transform="matrix(1.00, 0.00, -0.00, -1.00, 646.5, 851.5)">h</text><text xml:space="preserve" font-family="OpenSans,Open Sans" font-size="52.0" fill="#3E3E3E" transform="matrix(1.00, 0.00, -0.00, -1.00, 678.4, 851.5)">t</text><text xml:space="preserve" font-family="OpenSans,Open Sans" font-size="52.0" fill="#3E3E3E" transform="matrix(1.00, 0.00, -0.00, -1.00, 696.8, 851.5)">t</text><text xml:space="preserve" font-family="OpenSans,Open Sans" font-size="52.0" fill="#3E3E3E" transform="matrix(1.00, 0.00, -0.00, -1.00, 715.1, 851.5)">p</text><text xml:space="preserve" font-family="OpenSans,Open Sans" font-size="52.0" fill="#3E3E3E" transform="matrix(1.00, 0.00, -0.00, -1.00, 747.0, 851.5)">:</text><text xml:space="preserve" font-family="OpenSans,Open Sans" font-size="52.0" fill="#3E3E3E" transform="matrix(1.00, 0.00, -0.00, -1.00, 760.8, 851.5)">/</text><text xml:space="preserve" font-family="OpenSans,Open Sans" font-size="52.0" fill="#3E3E3E" transform="matrix(1.00, 0.00, -0.00, -1.00, 779.9, 851.5)">/</text><text xml:space="preserve" font-family="OpenSans,Open Sans" font-size="52.0" fill="#3E3E3E" transform="matrix(1.00, 0.00, -0.00, -1.00, 799.0, 851.5)">c</text><text xml:space="preserve" font-family="OpenSans,Open Sans" font-size="52.0" fill="#3E3E3E" transform="matrix(1.00, 0.00, -0.00, -1.00, 823.8, 851.5)">k</text><text xml:space="preserve" font-family="OpenSans,Open Sans" font-size="52.0" fill="#3E3E3E" transform="matrix(1.00, 0.00, -0.00, -1.00, 850.0, 851.5)">e</text><text xml:space="preserve" font-family="OpenSans,Open Sans" font-size="52.0" fill="#3E3E3E" transform="matrix(1.00, 0.00, -0.00, -1.00, 879.2, 851.5)">d</text><text xml:space="preserve" font-family="OpenSans,Open Sans" font-size="52.0" fill="#3E3E3E" transform="matrix(1.00, 0.00, -0.00, -1.00, 911.1, 851.5)">i</text><text xml:space="preserve" font-family="OpenSans,Open Sans" font-size="52.0" fill="#3E3E3E" transform="matrix(1.00, 0.00, -0.00, -1.00, 924.2, 851.5)">t</text><text xml:space="preserve" font-family="OpenSans,Open Sans" font-size="52.0" fill="#3E3E3E" transform="matrix(1.00, 0.00, -0.00, -1.00, 942.6, 851.5)">o</text><text xml:space="preserve" font-family="OpenSans,Open Sans" font-size="52.0" fill="#3E3E3E" transform="matrix(1.00, 0.00, -0.00, -1.00, 974.0, 851.5)">r</text><text xml:space="preserve" font-family="OpenSans,Open Sans" font-size="52.0" fill="#3E3E3E" transform="matrix(1.00, 0.00, -0.00, -1.00, 995.2, 851.5)">.</text><text xml:space="preserve" font-family="OpenSans,Open Sans" font-size="52.0" fill="#3E3E3E" transform="matrix(1.00, 0.00, -0.00, -1.00, 1009.1, 851.5)">c</text><text xml:space="preserve" font-family="OpenSans,Open Sans" font-size="52.0" fill="#3E3E3E" transform="matrix(1.00, 0.00, -0.00, -1.00, 1033.8, 851.5)">o</text><text xml:space="preserve" font-family="OpenSans,Open Sans" font-size="52.0" fill="#3E3E3E" transform="matrix(1.00, 0.00, -0.00, -1.00, 1065.2, 851.5)">m</text><text xml:space="preserve" font-family="OpenSans,Open Sans" font-size="52.0" fill="#3E3E3E" transform="matrix(1.00, 0.00, -0.00, -1.00, 1113.6, 851.5)">/</text><text xml:space="preserve" font-family="OpenSans,Open Sans" font-size="52.0" fill="#3E3E3E" transform="matrix(1.00, 0.00, -0.00, -1.00, 1132.7, 851.5)">d</text><text xml:space="preserve" font-family="OpenSans,Open Sans" font-size="52.0" fill="#3E3E3E" transform="matrix(1.00, 0.00, -0.00, -1.00, 1164.6, 851.5)">e</text><text xml:space="preserve" font-family="OpenSans,Open Sans" font-size="52.0" fill="#3E3E3E" transform="matrix(1.00, 0.00, -0.00, -1.00, 1193.7, 851.5)">m</text><text xml:space="preserve" font-family="OpenSans,Open Sans" font-size="52.0" fill="#3E3E3E" transform="matrix(1.00, 0.00, -0.00, -1.00, 1242.1, 851.5)">o</text><g><clipPath id="clip0x7f8a3d80f7a0"><path d="M 645.5 845.3 L 1273.5 845.3 L 1273.5 849.8 L 645.5 849.8 Z M 645.5 845.3 "></path></clipPath><g clip-path="url(#clip0x7f8a3d80f7a0)"><path d="M 594.0 83.7 L 1221.0 83.7 " fill="none" stroke="#3E3E3E" stroke-width="2.59" transform="matrix(1.00, 0.00, 0.00, -1.00, 52.5, 931.2)"></path></g></g><g><clipPath id="clip0x7f8a3e912290"><path d="M 246.0 826.0 L 1674.0 826.0 L 1674.0 6.0 L 246.0 6.0 Z M 245.6 826.4 "></path></clipPath><g clip-path="url(#clip0x7f8a3e912290)"><image xlink:href="5A8B6F19BEAFD4EF8DA74F882B03C6FB.png" width="2040.00" height="1172.00" transform="matrix(0.70, 0.00, -0.00, -0.70, 246.0, 826.0)"></image></g></g></g></svg>