<?xml version="1.0" encoding="UTF-8" standalone="no"?><svg xmlns="http://www.w3.org/2000/svg" xmlns:xlink="http://www.w3.org/1999/xlink" clip-rule="evenodd" stroke-miterlimit="10" viewBox="0 0 1920 1080"><desc>SVG generated by Keynote</desc><defs></defs><g transform="matrix(1.00, 0.00, -0.00, -1.00, 0.0, 1080.0)"><g><clipPath id="clip0x7f8a2c930cb0"><path d="M 0.0 1080.0 L 1920.0 1080.0 L 1920.0 0.0 L 0.0 0.0 Z M 0.0 1080.0 "></path></clipPath><g clip-path="url(#clip0x7f8a2c930cb0)"><image xlink:href="../../991DDBCA-1BA3-4EEA-9F7C-53BF884786EC/assets/C8AF8D5373B240750928713C158CDCE7.png" width="1280.00" height="1024.00" transform="matrix(1.50, 0.00, -0.00, -1.05, 0.0, 1080.0)"></image></g></g><image xlink:href="../../991DDBCA-1BA3-4EEA-9F7C-53BF884786EC/assets/8A87A3B5F2651CC804842E862E028977.png" width="153.00" height="41.00" transform="matrix(0.95, 0.00, -0.00, -0.95, 1725.0, 1080.0)"></image><text xml:space="preserve" font-family="OpenSans-Light,Open Sans" font-size="88.0" fill="#3E3E3E" transform="matrix(1.00, 0.00, -0.00, -1.00, 57.0, 949.8)">O</text><text xml:space="preserve" font-family="OpenSans-Light,Open Sans" font-size="88.0" fill="#3E3E3E" transform="matrix(1.00, 0.00, -0.00, -1.00, 124.3, 949.8)">N</text><text xml:space="preserve" font-family="OpenSans-Light,Open Sans" font-size="88.0" fill="#3E3E3E" transform="matrix(1.00, 0.00, -0.00, -1.00, 187.7, 949.8)">L</text><text xml:space="preserve" font-family="OpenSans-Light,Open Sans" font-size="88.0" fill="#3E3E3E" transform="matrix(1.00, 0.00, -0.00, -1.00, 232.9, 949.8)">I</text><text xml:space="preserve" font-family="OpenSans-Light,Open Sans" font-size="88.0" fill="#3E3E3E" transform="matrix(1.00, 0.00, -0.00, -1.00, 255.1, 949.8)">N</text><text xml:space="preserve" font-family="OpenSans-Light,Open Sans" font-size="88.0" fill="#3E3E3E" transform="matrix(1.00, 0.00, -0.00, -1.00, 318.6, 949.8)">E</text><text xml:space="preserve" font-family="OpenSans-Light,Open Sans" font-size="88.0" fill="#3E3E3E" transform="matrix(1.00, 0.00, -0.00, -1.00, 367.1, 949.8)"> </text><text xml:space="preserve" font-family="OpenSans-Light,Open Sans" font-size="88.0" fill="#3E3E3E" transform="matrix(1.00, 0.00, -0.00, -1.00, 390.0, 949.8)">T</text><text xml:space="preserve" font-family="OpenSans-Light,Open Sans" font-size="88.0" fill="#3E3E3E" transform="matrix(1.00, 0.00, -0.00, -1.00, 436.1, 949.8)">E</text><text xml:space="preserve" font-family="OpenSans-Light,Open Sans" font-size="88.0" fill="#3E3E3E" transform="matrix(1.00, 0.00, -0.00, -1.00, 484.6, 949.8)">X</text><text xml:space="preserve" font-family="OpenSans-Light,Open Sans" font-size="88.0" fill="#3E3E3E" transform="matrix(1.00, 0.00, -0.00, -1.00, 532.0, 949.8)">T</text><text xml:space="preserve" font-family="OpenSans-Light,Open Sans" font-size="88.0" fill="#3E3E3E" transform="matrix(1.00, 0.00, -0.00, -1.00, 578.0, 949.8)"> </text><text xml:space="preserve" font-family="OpenSans-Light,Open Sans" font-size="88.0" fill="#3E3E3E" transform="matrix(1.00, 0.00, -0.00, -1.00, 600.9, 949.8)">E</text><text xml:space="preserve" font-family="OpenSans-Light,Open Sans" font-size="88.0" fill="#3E3E3E" transform="matrix(1.00, 0.00, -0.00, -1.00, 649.4, 949.8)">D</text><text xml:space="preserve" font-family="OpenSans-Light,Open Sans" font-size="88.0" fill="#3E3E3E" transform="matrix(1.00, 0.00, -0.00, -1.00, 711.6, 949.8)">I</text><text xml:space="preserve" font-family="OpenSans-Light,Open Sans" font-size="88.0" fill="#3E3E3E" transform="matrix(1.00, 0.00, -0.00, -1.00, 733.7, 949.8)">T</text><text xml:space="preserve" font-family="OpenSans-Light,Open Sans" font-size="88.0" fill="#3E3E3E" transform="matrix(1.00, 0.00, -0.00, -1.00, 778.1, 949.8)">O</text><text xml:space="preserve" font-family="OpenSans-Light,Open Sans" font-size="88.0" fill="#3E3E3E" transform="matrix(1.00, 0.00, -0.00, -1.00, 845.3, 949.8)">R</text><text xml:space="preserve" font-family="OpenSans,Open Sans" font-size="52.0" fill="#3E3E3E" transform="matrix(1.00, 0.00, -0.00, -1.00, 652.5, 838.5)">h</text><text xml:space="preserve" font-family="OpenSans,Open Sans" font-size="52.0" fill="#3E3E3E" transform="matrix(1.00, 0.00, -0.00, -1.00, 684.4, 838.5)">t</text><text xml:space="preserve" font-family="OpenSans,Open Sans" font-size="52.0" fill="#3E3E3E" transform="matrix(1.00, 0.00, -0.00, -1.00, 702.8, 838.5)">t</text><text xml:space="preserve" font-family="OpenSans,Open Sans" font-size="52.0" fill="#3E3E3E" transform="matrix(1.00, 0.00, -0.00, -1.00, 721.1, 838.5)">p</text><text xml:space="preserve" font-family="OpenSans,Open Sans" font-size="52.0" fill="#3E3E3E" transform="matrix(1.00, 0.00, -0.00, -1.00, 753.0, 838.5)">:</text><text xml:space="preserve" font-family="OpenSans,Open Sans" font-size="52.0" fill="#3E3E3E" transform="matrix(1.00, 0.00, -0.00, -1.00, 766.8, 838.5)">/</text><text xml:space="preserve" font-family="OpenSans,Open Sans" font-size="52.0" fill="#3E3E3E" transform="matrix(1.00, 0.00, -0.00, -1.00, 785.9, 838.5)">/</text><text xml:space="preserve" font-family="OpenSans,Open Sans" font-size="52.0" fill="#3E3E3E" transform="matrix(1.00, 0.00, -0.00, -1.00, 805.0, 838.5)">w</text><text xml:space="preserve" font-family="OpenSans,Open Sans" font-size="52.0" fill="#3E3E3E" transform="matrix(1.00, 0.00, -0.00, -1.00, 845.5, 838.5)">w</text><text xml:space="preserve" font-family="OpenSans,Open Sans" font-size="52.0" fill="#3E3E3E" transform="matrix(1.00, 0.00, -0.00, -1.00, 885.9, 838.5)">w</text><text xml:space="preserve" font-family="OpenSans,Open Sans" font-size="52.0" fill="#3E3E3E" transform="matrix(1.00, 0.00, -0.00, -1.00, 924.3, 838.5)">.</text><text xml:space="preserve" font-family="OpenSans,Open Sans" font-size="52.0" fill="#3E3E3E" transform="matrix(1.00, 0.00, -0.00, -1.00, 938.1, 838.5)">t</text><text xml:space="preserve" font-family="OpenSans,Open Sans" font-size="52.0" fill="#3E3E3E" transform="matrix(1.00, 0.00, -0.00, -1.00, 956.5, 838.5)">i</text><text xml:space="preserve" font-family="OpenSans,Open Sans" font-size="52.0" fill="#3E3E3E" transform="matrix(1.00, 0.00, -0.00, -1.00, 969.6, 838.5)">n</text><text xml:space="preserve" font-family="OpenSans,Open Sans" font-size="52.0" fill="#3E3E3E" transform="matrix(1.00, 0.00, -0.00, -1.00, 1001.5, 838.5)">y</text><text xml:space="preserve" font-family="OpenSans,Open Sans" font-size="52.0" fill="#3E3E3E" transform="matrix(1.00, 0.00, -0.00, -1.00, 1027.7, 838.5)">m</text><text xml:space="preserve" font-family="OpenSans,Open Sans" font-size="52.0" fill="#3E3E3E" transform="matrix(1.00, 0.00, -0.00, -1.00, 1076.1, 838.5)">c</text><text xml:space="preserve" font-family="OpenSans,Open Sans" font-size="52.0" fill="#3E3E3E" transform="matrix(1.00, 0.00, -0.00, -1.00, 1100.8, 838.5)">e</text><text xml:space="preserve" font-family="OpenSans,Open Sans" font-size="52.0" fill="#3E3E3E" transform="matrix(1.00, 0.00, -0.00, -1.00, 1130.0, 838.5)">.</text><text xml:space="preserve" font-family="OpenSans,Open Sans" font-size="52.0" fill="#3E3E3E" transform="matrix(1.00, 0.00, -0.00, -1.00, 1143.9, 838.5)">c</text><text xml:space="preserve" font-family="OpenSans,Open Sans" font-size="52.0" fill="#3E3E3E" transform="matrix(1.00, 0.00, -0.00, -1.00, 1168.6, 838.5)">o</text><text xml:space="preserve" font-family="OpenSans,Open Sans" font-size="52.0" fill="#3E3E3E" transform="matrix(1.00, 0.00, -0.00, -1.00, 1200.0, 838.5)">m</text><text xml:space="preserve" font-family="OpenSans,Open Sans" font-size="52.0" fill="#3E3E3E" transform="matrix(1.00, 0.00, -0.00, -1.00, 1248.4, 838.5)">/</text><text xml:space="preserve" font-family="OpenSans,Open Sans" font-size="52.0" fill="#3E3E3E" transform="matrix(1.00, 0.00, -0.00, -1.00, 1267.5, 838.5)"> </text><g><clipPath id="clip0x7f8a3f0917d0"><path d="M 651.5 832.3 L 1267.5 832.3 L 1267.5 836.8 L 651.5 836.8 Z M 651.5 832.3 "></path></clipPath><g clip-path="url(#clip0x7f8a3f0917d0)"><path d="M 600.0 83.7 L 1215.0 83.7 " fill="none" stroke="#3E3E3E" stroke-width="2.59" transform="matrix(1.00, 0.00, 0.00, -1.00, 52.5, 918.2)"></path></g></g><image xlink:href="../../F1A219FD-8204-4D9C-B2BE-B83AAAECB95E/assets/78AB83FEEC780D60F3FE72A70ED7A452.png" width="1962.00" height="844.00" transform="matrix(0.94, 0.00, -0.00, -0.94, 40.0, 804.0)"></image></g></svg>