<?xml version="1.0" encoding="UTF-8" standalone="no"?><svg xmlns="http://www.w3.org/2000/svg" xmlns:xlink="http://www.w3.org/1999/xlink" clip-rule="evenodd" stroke-miterlimit="10" viewBox="0 0 1920 1080"><desc>SVG generated by Keynote</desc><defs></defs><g transform="matrix(1.00, 0.00, -0.00, -1.00, 0.0, 1080.0)"><g><clipPath id="clip0x7f8a28467310"><path d="M 0.0 1080.0 L 1920.0 1080.0 L 1920.0 0.0 L 0.0 0.0 Z M 0.0 1080.0 "></path></clipPath><g clip-path="url(#clip0x7f8a28467310)"><image xlink:href="../../991DDBCA-1BA3-4EEA-9F7C-53BF884786EC/assets/C8AF8D5373B240750928713C158CDCE7.png" width="1280.00" height="1024.00" transform="matrix(1.50, 0.00, -0.00, -1.05, 0.0, 1080.0)"></image></g></g><image xlink:href="../../991DDBCA-1BA3-4EEA-9F7C-53BF884786EC/assets/8A87A3B5F2651CC804842E862E028977.png" width="153.00" height="41.00" transform="matrix(0.95, 0.00, -0.00, -0.95, 1725.0, 1080.0)"></image><text xml:space="preserve" font-family="OpenSans-Light,Open Sans" font-size="88.0" fill="#3E3E3E" transform="matrix(1.00, 0.00, -0.00, -1.00, 773.6, 937.8)">D</text><text xml:space="preserve" font-family="OpenSans-Light,Open Sans" font-size="88.0" fill="#3E3E3E" transform="matrix(1.00, 0.00, -0.00, -1.00, 835.7, 937.8)">E</text><text xml:space="preserve" font-family="OpenSans-Light,Open Sans" font-size="88.0" fill="#3E3E3E" transform="matrix(1.00, 0.00, -0.00, -1.00, 884.3, 937.8)">S</text><text xml:space="preserve" font-family="OpenSans-Light,Open Sans" font-size="88.0" fill="#3E3E3E" transform="matrix(1.00, 0.00, -0.00, -1.00, 932.2, 937.8)">K</text><text xml:space="preserve" font-family="OpenSans-Light,Open Sans" font-size="88.0" fill="#3E3E3E" transform="matrix(1.00, 0.00, -0.00, -1.00, 983.4, 937.8)">T</text><text xml:space="preserve" font-family="OpenSans-Light,Open Sans" font-size="88.0" fill="#3E3E3E" transform="matrix(1.00, 0.00, -0.00, -1.00, 1027.7, 937.8)">O</text><text xml:space="preserve" font-family="OpenSans-Light,Open Sans" font-size="88.0" fill="#3E3E3E" transform="matrix(1.00, 0.00, -0.00, -1.00, 1095.0, 937.8)">P</text><image xlink:href="../../C796D457-1F87-4EFE-B07C-FC7E3704256C/assets/E3E1C5465CCCDEDF1A0283AA60BD7215.png" width="2880.00" height="1800.00" transform="matrix(0.49, 0.00, -0.00, -0.49, 252.0, 916.0)"></image></g></svg>