<?xml version="1.0" encoding="UTF-8" standalone="no"?><svg xmlns="http://www.w3.org/2000/svg" xmlns:xlink="http://www.w3.org/1999/xlink" clip-rule="evenodd" stroke-miterlimit="10" viewBox="0 0 1920 1080"><desc>SVG generated by Keynote</desc><defs></defs><g transform="matrix(1.00, 0.00, -0.00, -1.00, 0.0, 1080.0)"><g><clipPath id="clip0x7f8a2b0792b0"><path d="M 0.0 1080.0 L 1920.0 1080.0 L 1920.0 0.0 L 0.0 0.0 Z M 0.0 1080.0 "></path></clipPath><g clip-path="url(#clip0x7f8a2b0792b0)"><image xlink:href="../../991DDBCA-1BA3-4EEA-9F7C-53BF884786EC/assets/C8AF8D5373B240750928713C158CDCE7.png" width="1280.00" height="1024.00" transform="matrix(1.50, 0.00, -0.00, -1.05, 0.0, 1080.0)"></image></g></g><image xlink:href="../../991DDBCA-1BA3-4EEA-9F7C-53BF884786EC/assets/8A87A3B5F2651CC804842E862E028977.png" width="153.00" height="41.00" transform="matrix(0.95, 0.00, -0.00, -0.95, 1725.0, 1080.0)"></image><text xml:space="preserve" font-family="OpenSans-Light,Open Sans" font-size="88.0" fill="#3E3E3E" transform="matrix(1.00, 0.00, -0.00, -1.00, 57.0, 949.8)">C</text><text xml:space="preserve" font-family="OpenSans-Light,Open Sans" font-size="88.0" fill="#3E3E3E" transform="matrix(1.00, 0.00, -0.00, -1.00, 109.9, 949.8)">O</text><text xml:space="preserve" font-family="OpenSans-Light,Open Sans" font-size="88.0" fill="#3E3E3E" transform="matrix(1.00, 0.00, -0.00, -1.00, 177.2, 949.8)">P</text><text xml:space="preserve" font-family="OpenSans-Light,Open Sans" font-size="88.0" fill="#3E3E3E" transform="matrix(1.00, 0.00, -0.00, -1.00, 228.6, 949.8)">Y</text><text xml:space="preserve" font-family="OpenSans-Light,Open Sans" font-size="88.0" fill="#3E3E3E" transform="matrix(1.00, 0.00, -0.00, -1.00, 275.1, 949.8)"> </text><text xml:space="preserve" font-family="OpenSans-Light,Open Sans" font-size="88.0" fill="#3E3E3E" transform="matrix(1.00, 0.00, -0.00, -1.00, 297.9, 949.8)">A</text><text xml:space="preserve" font-family="OpenSans-Light,Open Sans" font-size="88.0" fill="#3E3E3E" transform="matrix(1.00, 0.00, -0.00, -1.00, 349.0, 949.8)">C</text><text xml:space="preserve" font-family="OpenSans-Light,Open Sans" font-size="88.0" fill="#3E3E3E" transform="matrix(1.00, 0.00, -0.00, -1.00, 403.6, 949.8)">T</text><text xml:space="preserve" font-family="OpenSans-Light,Open Sans" font-size="88.0" fill="#3E3E3E" transform="matrix(1.00, 0.00, -0.00, -1.00, 449.7, 949.8)">I</text><text xml:space="preserve" font-family="OpenSans-Light,Open Sans" font-size="88.0" fill="#3E3E3E" transform="matrix(1.00, 0.00, -0.00, -1.00, 471.9, 949.8)">O</text><text xml:space="preserve" font-family="OpenSans-Light,Open Sans" font-size="88.0" fill="#3E3E3E" transform="matrix(1.00, 0.00, -0.00, -1.00, 539.2, 949.8)">N</text><text xml:space="preserve" font-family="OpenSans,Open Sans" font-size="42.6" fill="#525252" transform="matrix(1.00, 0.00, -0.00, -1.00, 57.0, 528.7)">•</text><text xml:space="preserve" font-family="OpenSans,Open Sans" font-size="52.0" fill="#3E3E3E" transform="matrix(1.00, 0.00, -0.00, -1.00, 81.0, 525.0)">I</text><text xml:space="preserve" font-family="OpenSans,Open Sans" font-size="52.0" fill="#3E3E3E" transform="matrix(1.00, 0.00, -0.00, -1.00, 95.5, 525.0)">m</text><text xml:space="preserve" font-family="OpenSans,Open Sans" font-size="52.0" fill="#3E3E3E" transform="matrix(1.00, 0.00, -0.00, -1.00, 143.9, 525.0)">p</text><text xml:space="preserve" font-family="OpenSans,Open Sans" font-size="52.0" fill="#3E3E3E" transform="matrix(1.00, 0.00, -0.00, -1.00, 175.7, 525.0)">l</text><text xml:space="preserve" font-family="OpenSans,Open Sans" font-size="52.0" fill="#3E3E3E" transform="matrix(1.00, 0.00, -0.00, -1.00, 188.9, 525.0)">e</text><text xml:space="preserve" font-family="OpenSans,Open Sans" font-size="52.0" fill="#3E3E3E" transform="matrix(1.00, 0.00, -0.00, -1.00, 218.0, 525.0)">m</text><text xml:space="preserve" font-family="OpenSans,Open Sans" font-size="52.0" fill="#3E3E3E" transform="matrix(1.00, 0.00, -0.00, -1.00, 266.4, 525.0)">e</text><text xml:space="preserve" font-family="OpenSans,Open Sans" font-size="52.0" fill="#3E3E3E" transform="matrix(1.00, 0.00, -0.00, -1.00, 295.6, 525.0)">n</text><text xml:space="preserve" font-family="OpenSans,Open Sans" font-size="52.0" fill="#3E3E3E" transform="matrix(1.00, 0.00, -0.00, -1.00, 327.5, 525.0)">t</text><text xml:space="preserve" font-family="OpenSans,Open Sans" font-size="52.0" fill="#3E3E3E" transform="matrix(1.00, 0.00, -0.00, -1.00, 345.9, 525.0)">a</text><text xml:space="preserve" font-family="OpenSans,Open Sans" font-size="52.0" fill="#3E3E3E" transform="matrix(1.00, 0.00, -0.00, -1.00, 374.8, 525.0)">t</text><text xml:space="preserve" font-family="OpenSans,Open Sans" font-size="52.0" fill="#3E3E3E" transform="matrix(1.00, 0.00, -0.00, -1.00, 393.1, 525.0)">i</text><text xml:space="preserve" font-family="OpenSans,Open Sans" font-size="52.0" fill="#3E3E3E" transform="matrix(1.00, 0.00, -0.00, -1.00, 406.3, 525.0)">o</text><text xml:space="preserve" font-family="OpenSans,Open Sans" font-size="52.0" fill="#3E3E3E" transform="matrix(1.00, 0.00, -0.00, -1.00, 437.7, 525.0)">n</text><text xml:space="preserve" font-family="OpenSans,Open Sans" font-size="52.0" fill="#3E3E3E" transform="matrix(1.00, 0.00, -0.00, -1.00, 469.6, 525.0)">s</text><text xml:space="preserve" font-family="OpenSans,Open Sans" font-size="52.0" fill="#3E3E3E" transform="matrix(1.00, 0.00, -0.00, -1.00, 494.4, 525.0)"> </text><text xml:space="preserve" font-family="OpenSans,Open Sans" font-size="52.0" fill="#3E3E3E" transform="matrix(1.00, 0.00, -0.00, -1.00, 507.9, 525.0)">s</text><text xml:space="preserve" font-family="OpenSans,Open Sans" font-size="52.0" fill="#3E3E3E" transform="matrix(1.00, 0.00, -0.00, -1.00, 532.7, 525.0)">h</text><text xml:space="preserve" font-family="OpenSans,Open Sans" font-size="52.0" fill="#3E3E3E" transform="matrix(1.00, 0.00, -0.00, -1.00, 564.6, 525.0)">o</text><text xml:space="preserve" font-family="OpenSans,Open Sans" font-size="52.0" fill="#3E3E3E" transform="matrix(1.00, 0.00, -0.00, -1.00, 596.0, 525.0)">u</text><text xml:space="preserve" font-family="OpenSans,Open Sans" font-size="52.0" fill="#3E3E3E" transform="matrix(1.00, 0.00, -0.00, -1.00, 627.9, 525.0)">l</text><text xml:space="preserve" font-family="OpenSans,Open Sans" font-size="52.0" fill="#3E3E3E" transform="matrix(1.00, 0.00, -0.00, -1.00, 641.1, 525.0)">d</text><text xml:space="preserve" font-family="OpenSans,Open Sans" font-size="52.0" fill="#3E3E3E" transform="matrix(1.00, 0.00, -0.00, -1.00, 673.0, 525.0)"> </text><text xml:space="preserve" font-family="OpenSans,Open Sans" font-size="52.0" fill="#3E3E3E" transform="matrix(1.00, 0.00, -0.00, -1.00, 686.4, 525.0)">c</text><text xml:space="preserve" font-family="OpenSans,Open Sans" font-size="52.0" fill="#3E3E3E" transform="matrix(1.00, 0.00, -0.00, -1.00, 711.2, 525.0)">r</text><text xml:space="preserve" font-family="OpenSans,Open Sans" font-size="52.0" fill="#3E3E3E" transform="matrix(1.00, 0.00, -0.00, -1.00, 731.4, 525.0)">e</text><text xml:space="preserve" font-family="OpenSans,Open Sans" font-size="52.0" fill="#3E3E3E" transform="matrix(1.00, 0.00, -0.00, -1.00, 760.6, 525.0)">a</text><text xml:space="preserve" font-family="OpenSans,Open Sans" font-size="52.0" fill="#3E3E3E" transform="matrix(1.00, 0.00, -0.00, -1.00, 789.5, 525.0)">t</text><text xml:space="preserve" font-family="OpenSans,Open Sans" font-size="52.0" fill="#3E3E3E" transform="matrix(1.00, 0.00, -0.00, -1.00, 807.9, 525.0)">e</text><text xml:space="preserve" font-family="OpenSans,Open Sans" font-size="52.0" fill="#3E3E3E" transform="matrix(1.00, 0.00, -0.00, -1.00, 837.0, 525.0)"> </text><text xml:space="preserve" font-family="OpenSans,Open Sans" font-size="52.0" fill="#3E3E3E" transform="matrix(1.00, 0.00, -0.00, -1.00, 850.5, 525.0)">a</text><text xml:space="preserve" font-family="OpenSans,Open Sans" font-size="52.0" fill="#3E3E3E" transform="matrix(1.00, 0.00, -0.00, -1.00, 879.5, 525.0)">l</text><text xml:space="preserve" font-family="OpenSans,Open Sans" font-size="52.0" fill="#3E3E3E" transform="matrix(1.00, 0.00, -0.00, -1.00, 892.6, 525.0)">t</text><text xml:space="preserve" font-family="OpenSans,Open Sans" font-size="52.0" fill="#3E3E3E" transform="matrix(1.00, 0.00, -0.00, -1.00, 911.0, 525.0)">e</text><text xml:space="preserve" font-family="OpenSans,Open Sans" font-size="52.0" fill="#3E3E3E" transform="matrix(1.00, 0.00, -0.00, -1.00, 940.1, 525.0)">r</text><text xml:space="preserve" font-family="OpenSans,Open Sans" font-size="52.0" fill="#3E3E3E" transform="matrix(1.00, 0.00, -0.00, -1.00, 961.4, 525.0)">n</text><text xml:space="preserve" font-family="OpenSans,Open Sans" font-size="52.0" fill="#3E3E3E" transform="matrix(1.00, 0.00, -0.00, -1.00, 993.3, 525.0)">a</text><text xml:space="preserve" font-family="OpenSans,Open Sans" font-size="52.0" fill="#3E3E3E" transform="matrix(1.00, 0.00, -0.00, -1.00, 1022.2, 525.0)">t</text><text xml:space="preserve" font-family="OpenSans,Open Sans" font-size="52.0" fill="#3E3E3E" transform="matrix(1.00, 0.00, -0.00, -1.00, 1040.6, 525.0)">e</text><text xml:space="preserve" font-family="OpenSans,Open Sans" font-size="52.0" fill="#3E3E3E" transform="matrix(1.00, 0.00, -0.00, -1.00, 1069.8, 525.0)"> </text><text xml:space="preserve" font-family="OpenSans,Open Sans" font-size="52.0" fill="#3E3E3E" transform="matrix(1.00, 0.00, -0.00, -1.00, 1083.2, 525.0)">t</text><text xml:space="preserve" font-family="OpenSans,Open Sans" font-size="52.0" fill="#3E3E3E" transform="matrix(1.00, 0.00, -0.00, -1.00, 1101.6, 525.0)">e</text><text xml:space="preserve" font-family="OpenSans,Open Sans" font-size="52.0" fill="#3E3E3E" transform="matrix(1.00, 0.00, -0.00, -1.00, 1129.7, 525.0)">x</text><text xml:space="preserve" font-family="OpenSans,Open Sans" font-size="52.0" fill="#3E3E3E" transform="matrix(1.00, 0.00, -0.00, -1.00, 1157.0, 525.0)">t</text><text xml:space="preserve" font-family="OpenSans,Open Sans" font-size="52.0" fill="#3E3E3E" transform="matrix(1.00, 0.00, -0.00, -1.00, 1175.3, 525.0)">/</text><text xml:space="preserve" font-family="OpenSans,Open Sans" font-size="52.0" fill="#3E3E3E" transform="matrix(1.00, 0.00, -0.00, -1.00, 1194.4, 525.0)">h</text><text xml:space="preserve" font-family="OpenSans,Open Sans" font-size="52.0" fill="#3E3E3E" transform="matrix(1.00, 0.00, -0.00, -1.00, 1226.3, 525.0)">t</text><text xml:space="preserve" font-family="OpenSans,Open Sans" font-size="52.0" fill="#3E3E3E" transform="matrix(1.00, 0.00, -0.00, -1.00, 1244.7, 525.0)">m</text><text xml:space="preserve" font-family="OpenSans,Open Sans" font-size="52.0" fill="#3E3E3E" transform="matrix(1.00, 0.00, -0.00, -1.00, 1293.1, 525.0)">l</text><text xml:space="preserve" font-family="OpenSans,Open Sans" font-size="52.0" fill="#3E3E3E" transform="matrix(1.00, 0.00, -0.00, -1.00, 1306.2, 525.0)"> </text><text xml:space="preserve" font-family="OpenSans,Open Sans" font-size="52.0" fill="#3E3E3E" transform="matrix(1.00, 0.00, -0.00, -1.00, 1319.7, 525.0)">a</text><text xml:space="preserve" font-family="OpenSans,Open Sans" font-size="52.0" fill="#3E3E3E" transform="matrix(1.00, 0.00, -0.00, -1.00, 1348.7, 525.0)">n</text><text xml:space="preserve" font-family="OpenSans,Open Sans" font-size="52.0" fill="#3E3E3E" transform="matrix(1.00, 0.00, -0.00, -1.00, 1380.6, 525.0)">d</text><text xml:space="preserve" font-family="OpenSans,Open Sans" font-size="52.0" fill="#3E3E3E" transform="matrix(1.00, 0.00, -0.00, -1.00, 1412.4, 525.0)"> </text><text xml:space="preserve" font-family="OpenSans,Open Sans" font-size="52.0" fill="#3E3E3E" transform="matrix(1.00, 0.00, -0.00, -1.00, 1425.9, 525.0)">t</text><text xml:space="preserve" font-family="OpenSans,Open Sans" font-size="52.0" fill="#3E3E3E" transform="matrix(1.00, 0.00, -0.00, -1.00, 1444.3, 525.0)">e</text><text xml:space="preserve" font-family="OpenSans,Open Sans" font-size="52.0" fill="#3E3E3E" transform="matrix(1.00, 0.00, -0.00, -1.00, 1472.4, 525.0)">x</text><text xml:space="preserve" font-family="OpenSans,Open Sans" font-size="52.0" fill="#3E3E3E" transform="matrix(1.00, 0.00, -0.00, -1.00, 1499.6, 525.0)">t</text><text xml:space="preserve" font-family="OpenSans,Open Sans" font-size="52.0" fill="#3E3E3E" transform="matrix(1.00, 0.00, -0.00, -1.00, 1518.0, 525.0)">/</text><text xml:space="preserve" font-family="OpenSans,Open Sans" font-size="52.0" fill="#3E3E3E" transform="matrix(1.00, 0.00, -0.00, -1.00, 1537.1, 525.0)">p</text><text xml:space="preserve" font-family="OpenSans,Open Sans" font-size="52.0" fill="#3E3E3E" transform="matrix(1.00, 0.00, -0.00, -1.00, 1569.0, 525.0)">l</text><text xml:space="preserve" font-family="OpenSans,Open Sans" font-size="52.0" fill="#3E3E3E" transform="matrix(1.00, 0.00, -0.00, -1.00, 1582.1, 525.0)">a</text><text xml:space="preserve" font-family="OpenSans,Open Sans" font-size="52.0" fill="#3E3E3E" transform="matrix(1.00, 0.00, -0.00, -1.00, 1611.0, 525.0)">i</text><text xml:space="preserve" font-family="OpenSans,Open Sans" font-size="52.0" fill="#3E3E3E" transform="matrix(1.00, 0.00, -0.00, -1.00, 1624.2, 525.0)">n</text><text xml:space="preserve" font-family="OpenSans,Open Sans" font-size="52.0" fill="#3E3E3E" transform="matrix(1.00, 0.00, -0.00, -1.00, 1656.1, 525.0)"> </text><text xml:space="preserve" font-family="OpenSans,Open Sans" font-size="52.0" fill="#3E3E3E" transform="matrix(1.00, 0.00, -0.00, -1.00, 81.0, 454.0)">c</text><text xml:space="preserve" font-family="OpenSans,Open Sans" font-size="52.0" fill="#3E3E3E" transform="matrix(1.00, 0.00, -0.00, -1.00, 105.8, 454.0)">l</text><text xml:space="preserve" font-family="OpenSans,Open Sans" font-size="52.0" fill="#3E3E3E" transform="matrix(1.00, 0.00, -0.00, -1.00, 118.9, 454.0)">i</text><text xml:space="preserve" font-family="OpenSans,Open Sans" font-size="52.0" fill="#3E3E3E" transform="matrix(1.00, 0.00, -0.00, -1.00, 132.1, 454.0)">p</text><text xml:space="preserve" font-family="OpenSans,Open Sans" font-size="52.0" fill="#3E3E3E" transform="matrix(1.00, 0.00, -0.00, -1.00, 163.9, 454.0)">b</text><text xml:space="preserve" font-family="OpenSans,Open Sans" font-size="52.0" fill="#3E3E3E" transform="matrix(1.00, 0.00, -0.00, -1.00, 195.8, 454.0)">o</text><text xml:space="preserve" font-family="OpenSans,Open Sans" font-size="52.0" fill="#3E3E3E" transform="matrix(1.00, 0.00, -0.00, -1.00, 227.2, 454.0)">a</text><text xml:space="preserve" font-family="OpenSans,Open Sans" font-size="52.0" fill="#3E3E3E" transform="matrix(1.00, 0.00, -0.00, -1.00, 256.1, 454.0)">r</text><text xml:space="preserve" font-family="OpenSans,Open Sans" font-size="52.0" fill="#3E3E3E" transform="matrix(1.00, 0.00, -0.00, -1.00, 276.3, 454.0)">d</text><text xml:space="preserve" font-family="OpenSans,Open Sans" font-size="52.0" fill="#3E3E3E" transform="matrix(1.00, 0.00, -0.00, -1.00, 308.2, 454.0)"> </text><text xml:space="preserve" font-family="OpenSans,Open Sans" font-size="52.0" fill="#3E3E3E" transform="matrix(1.00, 0.00, -0.00, -1.00, 321.7, 454.0)">f</text><text xml:space="preserve" font-family="OpenSans,Open Sans" font-size="52.0" fill="#3E3E3E" transform="matrix(1.00, 0.00, -0.00, -1.00, 339.3, 454.0)">o</text><text xml:space="preserve" font-family="OpenSans,Open Sans" font-size="52.0" fill="#3E3E3E" transform="matrix(1.00, 0.00, -0.00, -1.00, 370.7, 454.0)">r</text><text xml:space="preserve" font-family="OpenSans,Open Sans" font-size="52.0" fill="#3E3E3E" transform="matrix(1.00, 0.00, -0.00, -1.00, 391.9, 454.0)">m</text><text xml:space="preserve" font-family="OpenSans,Open Sans" font-size="52.0" fill="#3E3E3E" transform="matrix(1.00, 0.00, -0.00, -1.00, 440.3, 454.0)">a</text><text xml:space="preserve" font-family="OpenSans,Open Sans" font-size="52.0" fill="#3E3E3E" transform="matrix(1.00, 0.00, -0.00, -1.00, 469.2, 454.0)">t</text><text xml:space="preserve" font-family="OpenSans,Open Sans" font-size="52.0" fill="#3E3E3E" transform="matrix(1.00, 0.00, -0.00, -1.00, 487.6, 454.0)">s</text><text xml:space="preserve" font-family="OpenSans,Open Sans" font-size="52.0" fill="#3E3E3E" transform="matrix(1.00, 0.00, -0.00, -1.00, 512.4, 454.0)"> </text><text xml:space="preserve" font-family="OpenSans,Open Sans" font-size="52.0" fill="#3E3E3E" transform="matrix(1.00, 0.00, -0.00, -1.00, 525.9, 454.0)">w</text><text xml:space="preserve" font-family="OpenSans,Open Sans" font-size="52.0" fill="#3E3E3E" transform="matrix(1.00, 0.00, -0.00, -1.00, 566.3, 454.0)">h</text><text xml:space="preserve" font-family="OpenSans,Open Sans" font-size="52.0" fill="#3E3E3E" transform="matrix(1.00, 0.00, -0.00, -1.00, 598.2, 454.0)">e</text><text xml:space="preserve" font-family="OpenSans,Open Sans" font-size="52.0" fill="#3E3E3E" transform="matrix(1.00, 0.00, -0.00, -1.00, 627.4, 454.0)">n</text><text xml:space="preserve" font-family="OpenSans,Open Sans" font-size="52.0" fill="#3E3E3E" transform="matrix(1.00, 0.00, -0.00, -1.00, 659.3, 454.0)"> </text><text xml:space="preserve" font-family="OpenSans,Open Sans" font-size="52.0" fill="#3E3E3E" transform="matrix(1.00, 0.00, -0.00, -1.00, 672.8, 454.0)">c</text><text xml:space="preserve" font-family="OpenSans,Open Sans" font-size="52.0" fill="#3E3E3E" transform="matrix(1.00, 0.00, -0.00, -1.00, 697.6, 454.0)">o</text><text xml:space="preserve" font-family="OpenSans,Open Sans" font-size="52.0" fill="#3E3E3E" transform="matrix(1.00, 0.00, -0.00, -1.00, 729.0, 454.0)">n</text><text xml:space="preserve" font-family="OpenSans,Open Sans" font-size="52.0" fill="#3E3E3E" transform="matrix(1.00, 0.00, -0.00, -1.00, 760.9, 454.0)">t</text><text xml:space="preserve" font-family="OpenSans,Open Sans" font-size="52.0" fill="#3E3E3E" transform="matrix(1.00, 0.00, -0.00, -1.00, 779.2, 454.0)">e</text><text xml:space="preserve" font-family="OpenSans,Open Sans" font-size="52.0" fill="#3E3E3E" transform="matrix(1.00, 0.00, -0.00, -1.00, 808.4, 454.0)">n</text><text xml:space="preserve" font-family="OpenSans,Open Sans" font-size="52.0" fill="#3E3E3E" transform="matrix(1.00, 0.00, -0.00, -1.00, 840.3, 454.0)">t</text><text xml:space="preserve" font-family="OpenSans,Open Sans" font-size="52.0" fill="#3E3E3E" transform="matrix(1.00, 0.00, -0.00, -1.00, 858.7, 454.0)"> </text><text xml:space="preserve" font-family="OpenSans,Open Sans" font-size="52.0" fill="#3E3E3E" transform="matrix(1.00, 0.00, -0.00, -1.00, 872.2, 454.0)">i</text><text xml:space="preserve" font-family="OpenSans,Open Sans" font-size="52.0" fill="#3E3E3E" transform="matrix(1.00, 0.00, -0.00, -1.00, 885.3, 454.0)">n</text><text xml:space="preserve" font-family="OpenSans,Open Sans" font-size="52.0" fill="#3E3E3E" transform="matrix(1.00, 0.00, -0.00, -1.00, 917.2, 454.0)"> </text><text xml:space="preserve" font-family="OpenSans,Open Sans" font-size="52.0" fill="#3E3E3E" transform="matrix(1.00, 0.00, -0.00, -1.00, 930.7, 454.0)">a</text><text xml:space="preserve" font-family="OpenSans,Open Sans" font-size="52.0" fill="#3E3E3E" transform="matrix(1.00, 0.00, -0.00, -1.00, 959.7, 454.0)"> </text><text xml:space="preserve" font-family="OpenSans,Open Sans" font-size="52.0" fill="#3E3E3E" transform="matrix(1.00, 0.00, -0.00, -1.00, 973.2, 454.0)">w</text><text xml:space="preserve" font-family="OpenSans,Open Sans" font-size="52.0" fill="#3E3E3E" transform="matrix(1.00, 0.00, -0.00, -1.00, 1013.6, 454.0)">e</text><text xml:space="preserve" font-family="OpenSans,Open Sans" font-size="52.0" fill="#3E3E3E" transform="matrix(1.00, 0.00, -0.00, -1.00, 1042.8, 454.0)">b</text><text xml:space="preserve" font-family="OpenSans,Open Sans" font-size="52.0" fill="#3E3E3E" transform="matrix(1.00, 0.00, -0.00, -1.00, 1074.6, 454.0)"> </text><text xml:space="preserve" font-family="OpenSans,Open Sans" font-size="52.0" fill="#3E3E3E" transform="matrix(1.00, 0.00, -0.00, -1.00, 1088.1, 454.0)">p</text><text xml:space="preserve" font-family="OpenSans,Open Sans" font-size="52.0" fill="#3E3E3E" transform="matrix(1.00, 0.00, -0.00, -1.00, 1120.0, 454.0)">a</text><text xml:space="preserve" font-family="OpenSans,Open Sans" font-size="52.0" fill="#3E3E3E" transform="matrix(1.00, 0.00, -0.00, -1.00, 1148.9, 454.0)">g</text><text xml:space="preserve" font-family="OpenSans,Open Sans" font-size="52.0" fill="#3E3E3E" transform="matrix(1.00, 0.00, -0.00, -1.00, 1177.4, 454.0)">e</text><text xml:space="preserve" font-family="OpenSans,Open Sans" font-size="52.0" fill="#3E3E3E" transform="matrix(1.00, 0.00, -0.00, -1.00, 1206.6, 454.0)"> </text><text xml:space="preserve" font-family="OpenSans,Open Sans" font-size="52.0" fill="#3E3E3E" transform="matrix(1.00, 0.00, -0.00, -1.00, 1220.1, 454.0)">i</text><text xml:space="preserve" font-family="OpenSans,Open Sans" font-size="52.0" fill="#3E3E3E" transform="matrix(1.00, 0.00, -0.00, -1.00, 1233.2, 454.0)">s</text><text xml:space="preserve" font-family="OpenSans,Open Sans" font-size="52.0" fill="#3E3E3E" transform="matrix(1.00, 0.00, -0.00, -1.00, 1258.0, 454.0)"> </text><text xml:space="preserve" font-family="OpenSans,Open Sans" font-size="52.0" fill="#3E3E3E" transform="matrix(1.00, 0.00, -0.00, -1.00, 1271.5, 454.0)">s</text><text xml:space="preserve" font-family="OpenSans,Open Sans" font-size="52.0" fill="#3E3E3E" transform="matrix(1.00, 0.00, -0.00, -1.00, 1296.3, 454.0)">e</text><text xml:space="preserve" font-family="OpenSans,Open Sans" font-size="52.0" fill="#3E3E3E" transform="matrix(1.00, 0.00, -0.00, -1.00, 1325.5, 454.0)">l</text><text xml:space="preserve" font-family="OpenSans,Open Sans" font-size="52.0" fill="#3E3E3E" transform="matrix(1.00, 0.00, -0.00, -1.00, 1338.6, 454.0)">e</text><text xml:space="preserve" font-family="OpenSans,Open Sans" font-size="52.0" fill="#3E3E3E" transform="matrix(1.00, 0.00, -0.00, -1.00, 1367.8, 454.0)">c</text><text xml:space="preserve" font-family="OpenSans,Open Sans" font-size="52.0" fill="#3E3E3E" transform="matrix(1.00, 0.00, -0.00, -1.00, 1392.6, 454.0)">t</text><text xml:space="preserve" font-family="OpenSans,Open Sans" font-size="52.0" fill="#3E3E3E" transform="matrix(1.00, 0.00, -0.00, -1.00, 1410.9, 454.0)">e</text><text xml:space="preserve" font-family="OpenSans,Open Sans" font-size="52.0" fill="#3E3E3E" transform="matrix(1.00, 0.00, -0.00, -1.00, 1440.1, 454.0)">d</text><text xml:space="preserve" font-family="OpenSans,Open Sans" font-size="52.0" fill="#3E3E3E" transform="matrix(1.00, 0.00, -0.00, -1.00, 1472.0, 454.0)">.</text><image xlink:href="374FB29436D626EBB8FA657082E021C7.png" width="2630.00" height="368.00" transform="matrix(0.72, 0.00, -0.00, -0.72, 11.0, 892.0)"></image></g></svg>