<?xml version="1.0" encoding="UTF-8" standalone="no"?><svg xmlns="http://www.w3.org/2000/svg" xmlns:xlink="http://www.w3.org/1999/xlink" clip-rule="evenodd" stroke-miterlimit="10" viewBox="0 0 1920 1080"><desc>SVG generated by Keynote</desc><defs></defs><g transform="matrix(1.00, 0.00, -0.00, -1.00, 0.0, 1080.0)"><g><clipPath id="clip0x7f8a2bd41f70"><path d="M 0.0 1080.0 L 1920.0 1080.0 L 1920.0 0.0 L 0.0 0.0 Z M 0.0 1080.0 "></path></clipPath><g clip-path="url(#clip0x7f8a2bd41f70)"><image xlink:href="../../991DDBCA-1BA3-4EEA-9F7C-53BF884786EC/assets/C8AF8D5373B240750928713C158CDCE7.png" width="1280.00" height="1024.00" transform="matrix(1.50, 0.00, -0.00, -1.05, 0.0, 1080.0)"></image></g></g><image xlink:href="../../991DDBCA-1BA3-4EEA-9F7C-53BF884786EC/assets/8A87A3B5F2651CC804842E862E028977.png" width="153.00" height="41.00" transform="matrix(0.95, 0.00, -0.00, -0.95, 1725.0, 1080.0)"></image><text xml:space="preserve" font-family="OpenSans-Light,Open Sans" font-size="88.0" fill="#3E3E3E" transform="matrix(1.00, 0.00, -0.00, -1.00, 57.0, 949.8)">P</text><text xml:space="preserve" font-family="OpenSans-Light,Open Sans" font-size="88.0" fill="#3E3E3E" transform="matrix(1.00, 0.00, -0.00, -1.00, 104.1, 949.8)">A</text><text xml:space="preserve" font-family="OpenSans-Light,Open Sans" font-size="88.0" fill="#3E3E3E" transform="matrix(1.00, 0.00, -0.00, -1.00, 156.9, 949.8)">S</text><text xml:space="preserve" font-family="OpenSans-Light,Open Sans" font-size="88.0" fill="#3E3E3E" transform="matrix(1.00, 0.00, -0.00, -1.00, 204.9, 949.8)">T</text><text xml:space="preserve" font-family="OpenSans-Light,Open Sans" font-size="88.0" fill="#3E3E3E" transform="matrix(1.00, 0.00, -0.00, -1.00, 251.0, 949.8)">E</text><text xml:space="preserve" font-family="OpenSans-Light,Open Sans" font-size="88.0" fill="#3E3E3E" transform="matrix(1.00, 0.00, -0.00, -1.00, 299.5, 949.8)"> </text><text xml:space="preserve" font-family="OpenSans-Light,Open Sans" font-size="88.0" fill="#3E3E3E" transform="matrix(1.00, 0.00, -0.00, -1.00, 322.3, 949.8)">A</text><text xml:space="preserve" font-family="OpenSans-Light,Open Sans" font-size="88.0" fill="#3E3E3E" transform="matrix(1.00, 0.00, -0.00, -1.00, 373.4, 949.8)">C</text><text xml:space="preserve" font-family="OpenSans-Light,Open Sans" font-size="88.0" fill="#3E3E3E" transform="matrix(1.00, 0.00, -0.00, -1.00, 428.1, 949.8)">T</text><text xml:space="preserve" font-family="OpenSans-Light,Open Sans" font-size="88.0" fill="#3E3E3E" transform="matrix(1.00, 0.00, -0.00, -1.00, 474.2, 949.8)">I</text><text xml:space="preserve" font-family="OpenSans-Light,Open Sans" font-size="88.0" fill="#3E3E3E" transform="matrix(1.00, 0.00, -0.00, -1.00, 496.3, 949.8)">O</text><text xml:space="preserve" font-family="OpenSans-Light,Open Sans" font-size="88.0" fill="#3E3E3E" transform="matrix(1.00, 0.00, -0.00, -1.00, 563.6, 949.8)">N</text><image xlink:href="../../B55553AF-891C-497D-98D9-EE316DAE5F56/assets/51678F3E6766C864799B9BC505C1918A.png" width="2516.00" height="366.00" transform="matrix(0.74, 0.00, -0.00, -0.74, 29.0, 876.0)"></image></g></svg>